<?xml version="1.0" encoding="UTF-8"?>
<!DOCTYPE svg PUBLIC "-//W3C//DTD SVG 1.1//EN" "http://www.w3.org/Graphics/SVG/1.1/DTD/svg11.dtd">
<!-- Creator: CorelDRAW 2019 (64-Bit) -->
<svg xmlns="http://www.w3.org/2000/svg" xml:space="preserve" width="96.0494mm" height="102.526mm" version="1.1" style="shape-rendering:geometricPrecision; text-rendering:geometricPrecision; image-rendering:optimizeQuality; fill-rule:evenodd; clip-rule:evenodd"
viewBox="0 0 781.6 834.3"
 xmlns:xlink="http://www.w3.org/1999/xlink"
 xmlns:xodm="http://www.corel.com/coreldraw/odm/2003">
 <defs>
  <style type="text/css">
   <![CDATA[
    .fil0 {fill:#FAC564}
   ]]>
  </style>
 </defs>
 <g id="Слой_x0020_1">
  <metadata id="CorelCorpID_0Corel-Layer"/>
  <g id="_2355521740112">
   <path class="fil0" d="M321.72 62.82c0.69,-18.6 6.77,-29.62 16.87,-38.13 6.69,-5.64 29.25,-13.8 39.83,-15.12 16.34,-2.04 69.76,14.85 91.14,17.43 -1.93,5.62 -2.24,4.48 -4.33,9.12 16.27,-2.72 13.32,-7.05 32.42,-0.54 19.82,6.75 63.19,22.66 71.61,39.52 -2.17,5.17 -3.31,3.84 -5.6,7.07 10.71,8.89 24.67,3.9 36.46,8.13l75.46 57.26 -2.06 3.7c-3.78,8.48 -1.8,11.49 8.77,12.5 16.34,1.56 12.37,-1.48 23.71,6.09 6.55,4.38 10.42,9.02 16.42,13.68 5.23,4.08 13.07,9.48 15.79,15.27l-8 3.83c-20.2,5.11 -21.25,0.45 -42.56,19.11 -8.06,7.05 -11.69,10.46 -18.7,18.44 -6.9,7.86 -6.4,7.88 -10,16.36l-3.06 5.36c-25.68,-20.09 -16.56,-38.76 -49.09,-63.26 -1.06,-18.29 5.3,-20.3 4.55,-36.59 -7.73,3.75 -6.4,12.79 -18.53,18.1 -8.5,3.72 -14.68,-1.89 -23.17,-6.39 -11.88,-6.31 -12.57,-9.49 -18.8,-18.35 -29.3,-41.65 -46.91,-18.12 -70.7,-37.15 -2.63,-2.11 -17.95,-13.18 -19.62,-15.68 -5.77,-8.65 -0.72,-20.19 -14.62,-19.96 -1.2,7.98 1.18,11.47 2.11,19.84 -13.57,-1.27 -36.13,-11.68 -46.74,-16.59 -10.23,-4.73 -9.46,-5.48 -14.36,-15.69 -3.87,-8.06 -5.25,-14.57 -8.21,-21.46 -11.14,4.05 -8.17,12.74 -6.2,23.61 -14.37,-2.56 -37.45,-10.42 -50.79,-9.52zm-244.15 544.88c1.17,-0.57 1.68,0.6 0.07,0.14 -0.02,-0.05 -0.05,-0.09 -0.07,-0.14zm312.58 -500.15c-28.91,-29.54 -45.44,-24.1 -78.39,-18.82 -0.03,-10.06 3.48,-15.43 10.63,-18.35 -2.62,-5.63 -0.12,-0.4 -2.99,-5.04 -2.62,-4.25 -0.19,0.99 -2.54,-4.05 3.81,2.54 1.66,0.77 4.85,1.53 1.82,5.48 4.3,6.86 11.37,8.47 6.14,1.39 9.6,2.36 15.32,3.92 20.51,5.59 38.12,10.42 56.55,21.05 23.96,13.82 47.39,17.7 54.88,22.92 7.9,5.52 13.02,12.74 24.65,14.43 16.1,2.35 16.88,3.16 25.73,12.94 6.94,7.67 12.16,10.39 19.57,18.3l-11.92 3.46c33.76,5.07 18.5,26.14 47.29,24.24 43.2,-2.86 32.16,14.39 38.29,30.24 4.79,12.38 11.52,2.65 15.52,21.81 1.83,8.79 8.99,15.09 14.1,21.21 8.49,10.16 25.06,28.81 29.84,40.81 -14.78,21.25 -23.37,12.9 -25.32,44.28 -1.06,17.1 4.83,3.5 5.64,17.57 -0.29,6.54 -12.39,6.26 -6.05,39.98 2.72,14.45 1.91,28.84 -15.21,26.95 -14.39,-17.27 3.08,-43.65 -18.51,-43.26 -8.08,12.51 2.76,39.14 -12.11,30.51 -4.47,-2.6 -28.47,-26.9 -29.12,7.57 -0.41,21.8 7.26,86.59 10.59,108.12 3.97,25.7 -18.17,37.76 -26.26,15.42 -5.25,-14.51 -1.45,-79.47 -1.97,-97 -0.54,-18.52 -9.1,-37.9 -23.79,-20.14 -11.62,14.05 -1.75,29.38 -16.89,39.39 -20.69,-5.79 -3.69,-23.19 -22.98,-24.12 -5.77,8.24 -1.69,6.19 -10.34,12.26l-40.79 24.62c-38.77,21.23 -2.8,43.88 -26.63,57.57 -5.6,-2.49 -7.18,-3.61 -7.82,-11.65 -0.73,-9.2 2.35,-10.05 -2.83,-16.11 -10.31,-5.96 -11.73,4.76 -16.78,9.78 -9.54,9.49 -29.63,9.05 -37.55,22.51 -6.86,11.65 -4.01,7.99 -17.35,12.59l-31.36 14.63c-4.89,2.94 -7.05,2.95 -9.59,4.48 -14.64,8.83 -3.92,36.65 -12.79,45.5 -9.65,-3.75 -4.38,-19.07 -11,-29.25 -53.44,-1.54 10.43,121.57 -25.85,118.8 -15.53,-1.19 -10.56,-25.35 -9.81,-40.15 2.86,-56.55 -21,-62.75 -38.25,-36.93 -14.75,22.08 -18.06,9.26 -35.12,19.74 -17.51,10.75 -1.29,34.44 -19.6,33.07 -2.73,-4.22 -3.46,-13.1 -5.25,-17.34 -12.92,-1.99 -17.51,5.34 -23.94,11.48 -10.7,10.23 -11.85,4.63 -10.71,22.71l-7.05 -8.69c-2.92,-2.49 -3.46,-2.93 -8.09,-1.28 -8.5,3.04 -39.51,27.89 -41.75,34.44 -2.72,7.95 -1.88,38.65 -0.24,47.36 2.13,11.32 10.67,34.34 -0.17,41.16 -7.98,-5.25 -5.42,-5.27 -3.85,-14.66 2.97,-17.77 -2.29,-36.77 -5,-54.77 -8.98,-6.01 -11.51,-1.89 -13.89,-16.23 -2.97,-17.91 21.05,-41.51 21.84,-65.21 0.69,-20.62 1.4,-19.69 12.15,-34.54 17.75,-24.51 17.49,-34.29 23.36,-43.91l2.5 -3.06c4.16,5.03 7.98,12.43 10.2,16.91 -0.38,0.18 -0.82,0.55 -1.28,1.21 -1.77,2.52 -0.66,-1.84 -1.62,3.21 10.75,0.14 9.66,1.17 15.84,5.32 -3.03,2.32 -6.49,2.11 -10.16,3.12 13.45,7.7 30.5,2.74 48.9,3.57 16.75,0.76 10.11,2.82 22.23,-3.64l33.95 -17.35c13.79,-8.22 30.55,-24.52 35.98,-41.74 9.37,-29.7 -8.17,-51.32 -30.97,-66.72 -12.34,-8.33 -18.4,-14.25 -39.26,-10.39 -12.03,2.23 -30.48,9.32 -40.71,9.53 7.28,-17.83 19.65,-34.91 29.55,-50.96 10.51,-17.03 12.66,-42.77 22.77,-56.93 22.09,10.45 28.42,50.83 83.68,27.26 12.27,-5.23 15.98,-7.16 24.58,-6.94 1.62,0.04 2.08,0.24 2.18,0.38 0.14,-0.15 0.5,-0.44 1.34,-0.94 10.04,-10.18 -12.11,-21.01 29.42,-32.07 8.55,-2.27 19.85,-5.11 22.06,-12.01l0.32 -2.14c0.1,-0.23 0.18,-0.79 0.31,-1 0.9,-1.45 2.04,-2.27 3.38,-2.74l-12.18 0.93c6.48,-40.09 1.43,-55.29 -24.42,-74.7 -34.82,-26.14 -56.62,-7.15 -86.79,-9.32 1.27,-7.35 16.71,-32.46 21.3,-42.28 6.25,-13.35 9.7,-30.67 21.43,-40.69 4.82,7 6.34,14.05 12.15,19.93 16.27,16.49 41.4,20.96 63.16,28.74l-1.09 15.5c4.24,-6.04 1.81,-6.83 7.94,-11.72 18.92,-15.08 6.92,-15.83 34.99,-21.75 12.65,-2.67 16.9,-6.18 24.72,-12.23 6.9,-5.34 13.71,-12.63 14.86,-21.73 -4.22,-1.43 0.85,0.2 -2.69,0.23 -1.77,0.01 -0.1,0.88 -2.66,-0.23 4.3,-13.74 10.17,-31.6 9.77,-45.97 -0.4,-14.47 -14.04,-26.41 -20.41,-32.91zm-57.37 -90.45c-35.89,25.2 -14.21,43.6 -21.28,56.29 -0.92,1.65 -7.7,9.38 -9.63,11.69 -20.13,24.07 -6.83,15.62 -31.4,28.69 -14.58,7.76 -31.5,26.43 -25.2,52.01 4.91,19.93 1.26,15.6 -6.89,29.09 -5.27,8.73 -8.73,17.45 -13.01,27.63 -9.23,21.94 -18.22,32.47 -26.66,54.55 -3.74,9.78 -12.45,14.87 -18.66,22.08 -6.45,7.5 -11.7,13.61 -17.91,22.79 -20.89,30.86 -8.36,43.22 -2.16,58.91 -12.86,19.22 -12.61,39.89 -23.69,58.23 -5.08,8.41 -7.43,6.48 -16.63,24.19 -32.45,62.51 -16.8,27.3 -49.24,70.88 -24.38,32.76 10.22,31.14 -25.92,90.66 -5.65,9.3 -12.54,14.57 -17.48,23.26 -7.24,12.75 -1.58,34.8 -17.79,61.7 -5.48,9.1 -11.72,15.99 -8.22,30.86 3.26,13.85 12.55,13.61 16.14,24.54 10.01,30.5 -5.32,64.45 6.04,69.14 12.54,0.06 20.77,-14.22 18.74,-28.58 -3.13,-22.09 -17.99,-65.88 4.56,-81.7 8.15,-5.72 22.46,-16.71 32.31,-19.11 0.78,7.31 0.45,14.88 9.22,13.12 8.54,-1.72 5.38,-8.88 5.11,-16.06 -0.27,-7.25 15.12,-18.09 22.17,-20.29 4.5,6.8 2.93,11.19 9.83,20.81 13.95,0.35 15.35,-6.43 17.44,-20.39 4.9,-32.62 23.44,-7.71 41.1,-32.94 31.44,-44.94 32.33,11.96 29.05,43.27 -3.78,36.05 21.92,37.24 31.76,26.34 14.11,-15.63 -6.24,-58.15 -5.27,-94.09 0.39,-14.21 1.6,-18.59 15.8,-19.69 -0.16,13.55 -1.87,20.97 5.6,29.64 9.63,1.3 15.61,-3.95 17.39,-11.77 2.54,-11.18 -4.97,-16.76 0.97,-28.67 4.18,-8.37 26.49,-16.68 38.58,-21.46 30.45,-12.05 22.24,-11.73 34.95,-25.17 4.9,-5.18 11.85,-6.5 19.47,-10.53 7.59,-4.02 11.39,-8.76 16.76,-11.09 0.88,8.24 -0.35,18.47 3.89,24.49 5.29,7.52 13.38,6.32 18.29,0.79 15.06,-16.95 0.76,-29.38 7.17,-45.84 3.79,-9.74 39.28,-23.32 52.11,-32.74 6.93,-5.09 8.37,-9.15 14.28,-13.82 4.51,7.9 3.13,16.31 10.12,21.58 7.89,5.95 17.11,2.7 20.29,-3.72 6.08,-12.29 -0.77,-46.41 20.68,-37.5 4.04,9.54 5.19,69.6 4.37,83.06 -0.81,13.19 -3.02,27.93 2.5,39.17 5.09,10.36 17.84,13.48 28.53,6.73 11.99,-7.59 9.71,-18.54 6.19,-32.59 -3.68,-14.66 -12.1,-104.82 -8.24,-116.32 17.12,-8.47 10.56,15.9 30.27,12.4 13.94,-11.28 -0.28,-20.86 7.17,-32.56 9.82,4.97 1.07,18.31 5.42,33.24 2.41,8.26 11.82,14.52 22.17,9.84 20.58,-9.31 5.73,-38.65 6.2,-59.5 12.04,-9.54 9.65,-4.35 9.78,-22.98 7.64,-7.25 24.17,-16.25 34.45,-22.84 12.19,-7.81 22.74,-14.7 33.15,-23.36 32.44,-26.98 36.41,-27.57 64,-48.6 0.12,-16.24 0.81,-21.93 -5.23,-36.19 -8.33,-19.65 -41.12,-48.73 -58.43,-63.55 -14.19,-12.15 -30.04,-23.43 -46.18,-35.07 -38.81,-27.99 -31.15,-32.34 -92.34,-68.53 -23.65,-13.99 -47.13,-19.32 -53.91,-27.32 -14.23,-16.8 -38.29,-11.83 -63.01,-18.43 -22.8,-6.09 -41.88,-9.33 -65.73,-13.7 -30.85,-5.66 -43.68,0.88 -63.9,15.08zm336.23 290.1c4.88,-10.7 -1.79,-35 8.03,-55.29 20.18,-41.69 68.37,-41.06 85.1,-23.27 4.24,4.51 10.16,14.83 10.68,23.32 0.96,15.64 -24.97,27.65 -48.66,46.91 -24.17,19.66 -29.74,25.13 -56.71,40.47 -8.22,4.67 -12.22,9.89 -18.8,13.33 -2.89,-30.2 13.33,-30.08 20.35,-45.45z"/>
   <path class="fil0" d="M509.77 208.79c-60.95,-13.54 -94.73,6.34 -122.19,39.82 -11.92,14.53 -23.85,35.15 -23.27,61.56 0.53,24.45 18.81,44.38 36.73,49.64 10.72,3.14 21.31,-1 29.53,2.04 5.02,1.85 -1.26,2.59 4.57,2.1 7.67,-0.64 14.77,-13.24 25.33,-15.78 7.66,-1.84 28.94,-4.36 37.63,-5.45 18.54,-2.34 12.07,-12.45 30.47,-13.52 -2.63,-5.01 -2.24,-2.09 -6.17,-5.9l9.97 -8.96 -5.62 -0.66c6.77,-17.82 27.2,-35.66 24.35,-59.44 -2.93,-24.45 -17.13,-40.09 -41.31,-45.46z"/>
   <path class="fil0" d="M399.66 453.31c-31.75,17.39 -55.65,-8.98 -90,24.89 -15.05,14.84 -15.76,27.43 -34.35,41.64 -7.8,5.97 -10.56,11.71 -12.02,25.28 -1.6,14.88 -5.09,21.07 -7.34,32.81 7.22,-2.62 16.67,-9.63 24.94,-13.64 47.78,-23.21 25.03,-7.96 71.8,-43.07 15.48,-11.62 26.43,-20.1 45.89,-30.08 10.46,-5.36 50.08,-22.47 28.8,-39.06 -8.88,-6.93 -20.2,-2.89 -27.72,1.23z"/>
  </g>
 </g>
</svg>
